<svg height="618pt" viewBox="-39 -19 618 618.66669" width="618pt" xmlns="http://www.w3.org/2000/svg"><path d="m250.527344 580h36.945312l-7.144531-50h-22.65625zm0 0"/><path d="m259 490h19.992188v20h-19.992188zm0 0"/><path d="m539 580v-10c-.074219-60.722656-49.277344-109.925781-110-110h-110v40c0 3.789062-2.136719 7.25-5.527344 8.945312-3.386718 1.695313-7.441406 1.328126-10.472656-.945312l-4-3v14.300781l8.671875 60.699219h131.328125v-50h20v50zm0 0"/><path d="m295 477 4 3v-20h-60v20l4-3 1.21875-.910156 18.78125-14.089844c3.554688-2.667969 8.445312-2.667969 12 0l18.75 14.058594zm0 0"/><path d="m169 330c-.140625 23.199219 13.246094 44.351562 34.269531 54.160156 8.019531 3.878906 16.820313 5.875 25.730469 5.839844h80c8.882812.039062 17.652344-1.945312 25.648438-5.800781 21.0625-9.792969 34.484374-30.972657 34.351562-54.199219v-120h-200zm0 0"/><path d="m329 407.480469c-.332031.089843-.679688.105469-1 .199219-2.101562.507812-4.25.878906-6.402344 1.222656-.996094.15625-1.996094.390625-2.996094.496094-3.183593.390624-6.394531.59375-9.601562.601562h-80c-3.203125-.007812-6.402344-.203125-9.578125-.589844-1.003906-.128906-2.003906-.363281-3.074219-.519531-2.117187-.339844-4.226562-.703125-6.296875-1.210937-.351562-.082032-.707031-.109376-1.050781-.199219v32.519531h120zm0 0"/><path d="m230.328125 580 8.671875-60.699219v-14.300781l-4 3c-3.03125 2.273438-7.082031 2.640625-10.472656.945312-3.386719-1.695312-5.527344-5.15625-5.527344-8.945312v-40h-110c-60.722656.074219-109.925781 49.277344-110 110v10h80v-50h20v50zm0 0"/><path d="m149 180c0 5.523438 4.476562 10 10 10h210c27.601562-.035156 49.964844-22.398438 50-50v-30h-220c-27.601562.035156-49.964844 22.398438-50 50zm0 0"/><path d="m479 220v20h-20v20h20v20h20v-20h20v-20h-20v-20zm0 0"/><path d="m14.859375 98.28125 14.140625-14.140625 14.140625 14.140625 14.140625-14.140625-14.140625-14.140625 14.140625-14.140625-14.140625-14.140625-14.140625 14.140625-14.140625-14.140625-14.140625 14.140625 14.140625 14.140625-14.140625 14.140625zm0 0"/><path d="m49 270h60v20h-60zm0 0"/><path d="m419 30h60v20h-60zm0 0"/><path d="m439 60h20v20h-20zm0 0"/><path d="m439 0h20v20h-20zm0 0"/><path d="m159 80c2.652344 0 5.195312-1.054688 7.070312-2.929688l37.070313-37.070312h55.859375v-20h-60c-2.652344 0-5.195312 1.054688-7.070312 2.929688l-32.929688 32.929687-12.929688-12.929687-14.140624 14.140624 20 20c1.875 1.875 4.417968 2.929688 7.070312 2.929688zm0 0"/></svg>